<svg xmlns="http://www.w3.org/2000/svg" xmlns:xlink="http://www.w3.org/1999/xlink" xmlns:serif="http://www.serif.com/" width="100%" height="100%" viewBox="0 0 580 84" version="1.1" xml:space="preserve" style="fill-rule:evenodd;clip-rule:evenodd;stroke-linejoin:round;stroke-miterlimit:2;"><g><path d="M157.308,66.029c11.884,0 21.467,-6.758 24.8,-17.566l-16.237,-0c-1.567,2.77 -4.75,4.441 -8.563,4.441c-5.154,0 -8.604,-2.808 -9.666,-8.241l35.166,-0c0.213,-1.467 0.338,-2.892 0.338,-4.321c-0,-13.896 -10.571,-24.792 -25.838,-24.792c-14.866,0 -25.729,10.683 -25.729,25.204c0,14.471 10.95,25.275 25.729,25.275Zm9.767,-30.404l-19.15,0c1.321,-4.704 4.625,-7.287 9.383,-7.287c4.921,-0 8.334,2.554 9.767,7.291l0,-0.004Zm45.608,30.4c5.5,0 10.417,-1.808 14.292,-4.95l1.4,3.35l12.613,0l-0,-47.371l-12.163,0l-1.667,3.667c-3.916,-3.229 -8.895,-5.092 -14.475,-5.092c-14.483,0 -24.837,10.438 -24.837,25.109c-0,14.72 10.354,25.291 24.837,25.291l0,-0.004Zm2.184,-14.446c-6.113,0 -10.605,-4.616 -10.605,-10.804c0,-6.146 4.455,-10.762 10.605,-10.762c6.108,-0 10.6,4.616 10.6,10.762c-0,6.188 -4.492,10.804 -10.6,10.804Zm54.679,14.446c12.583,0 20.937,-6.475 20.937,-16.375c0,-12.012 -9.945,-13.567 -17.429,-14.896c-4.5,-0.804 -8.125,-1.433 -8.125,-4.125c0,-2.196 1.759,-3.491 4.375,-3.491c2.959,-0 4.988,1.404 4.988,4.429l15.279,-0c-0.183,-9.596 -8,-16.013 -20.067,-16.013c-12.133,0 -20.225,6.125 -20.225,15.625c0,11.488 9.738,13.704 17.084,14.892c4.55,0.754 8.133,1.533 8.133,4.267c-0,2.445 -2.263,3.666 -4.65,3.666c-3.092,0 -5.5,-1.596 -5.5,-5.058l-15.708,-0c0.15,10.262 7.995,17.083 20.908,17.083l-0,-0.004Zm33.75,16.075c12.233,0 18.1,-5.237 24.487,-19.733l19.85,-45.263l-17.525,0l-9.371,26.096l-10.05,-26.096l-17.729,0l19.575,43.459c-2.208,5.891 -4.095,7.516 -10.333,7.516l-4.492,0l0,14.021l5.588,0Zm77.1,-16.075c14.583,0 24.887,-10.479 24.887,-25.2c0,-14.721 -10.3,-25.2 -24.887,-25.2c-4.152,-0.032 -8.23,1.099 -11.771,3.267l0,-18.892l-16.125,0l0,64.475l12.071,0l1.542,-3.517c3.845,3.213 8.758,5.067 14.283,5.067Zm-2.179,-14.446c-6.113,0 -10.604,-4.616 -10.604,-10.75c-0,-6.191 4.491,-10.808 10.604,-10.808c6.108,-0 10.6,4.617 10.6,10.804c-0,6.138 -4.53,10.75 -10.6,10.75l-0,0.004Zm56.658,14.446c5.5,0 10.417,-1.808 14.292,-4.95l1.4,3.35l12.612,0l0,-47.371l-12.158,0l-1.671,3.667c-3.912,-3.229 -8.896,-5.092 -14.475,-5.092c-14.483,0 -24.833,10.438 -24.833,25.109c-0,14.72 10.35,25.291 24.833,25.291l0,-0.004Zm2.183,-14.446c-6.112,0 -10.604,-4.616 -10.604,-10.804c0,-6.146 4.459,-10.762 10.604,-10.762c6.113,-0 10.605,4.616 10.605,10.762c-0,6.188 -4.492,10.804 -10.605,10.804Zm52.721,12.9l0,-25.3c0,-6.029 2.925,-9.583 8.013,-9.583c4.108,-0 6.179,2.737 6.179,8.25l-0,26.625l16.312,-0l0,-28.875c0,-12.071 -7.22,-19.888 -18.22,-19.888c-6.125,0 -11.388,2.355 -14.917,6.284l-2.238,-4.884l-11.445,0l-0,47.371l16.316,0Zm57.284,-0.004l-0,-20.033l11.866,20.033l19.234,0l-16.259,-24.792l14.763,-22.579l-18.321,0l-11.283,18.559l-0,-35.663l-16.317,0l-0,64.475l16.317,0Z" style="fill:#fff;fill-rule:nonzero;"/><g><path d="M45.008,0l-45.008,82.1l24.942,0l45.012,-82.1l-24.946,0Z" style="fill:url(#_Linear1);"/><path d="M75.713,0l-45.013,82.1l24.942,0l45.012,-82.1l-24.942,0Z" style="fill:url(#_Linear2);"/><path d="M106.413,0l-45.009,82.1l24.942,0l45.008,-82.1l-24.942,0Z" style="fill:url(#_Linear3);"/></g></g><defs><linearGradient id="_Linear1" x1="0" y1="0" x2="1" y2="0" gradientUnits="userSpaceOnUse" gradientTransform="matrix(-38.2593,82.1,-82.1,-38.2593,50.5034,0)"><stop offset="0" style="stop-color:#33d35e;stop-opacity:1"/><stop offset="1" style="stop-color:#2ab6d9;stop-opacity:1"/></linearGradient><linearGradient id="_Linear2" x1="0" y1="0" x2="1" y2="0" gradientUnits="userSpaceOnUse" gradientTransform="matrix(-38.2593,82.1,-82.1,-38.2593,81.2034,0)"><stop offset="0" style="stop-color:#33d35e;stop-opacity:0.5"/><stop offset="1" style="stop-color:#2ab6d9;stop-opacity:0.5"/></linearGradient><linearGradient id="_Linear3" x1="0" y1="0" x2="1" y2="0" gradientUnits="userSpaceOnUse" gradientTransform="matrix(-38.2571,82.1,-82.1,-38.2571,111.905,0)"><stop offset="0" style="stop-color:#33d35e;stop-opacity:0.15"/><stop offset="1" style="stop-color:#2ab6d9;stop-opacity:0.15"/></linearGradient></defs>
<path xmlns="http://www.w3.org/2000/svg" d="M157.308,66.029c11.884,0 21.467,-6.758 24.8,-17.566l-16.237,-0c-1.567,2.77 -4.75,4.441 -8.563,4.441c-5.154,0 -8.604,-2.808 -9.666,-8.241l35.166,-0c0.213,-1.467 0.338,-2.892 0.338,-4.321c-0,-13.896 -10.571,-24.792 -25.838,-24.792c-14.866,0 -25.729,10.683 -25.729,25.204c0,14.471 10.95,25.275 25.729,25.275Zm9.767,-30.404l-19.15,0c1.321,-4.704 4.625,-7.287 9.383,-7.287c4.921,-0 8.334,2.554 9.767,7.291l0,-0.004Zm45.608,30.4c5.5,0 10.417,-1.808 14.292,-4.95l1.4,3.35l12.613,0l-0,-47.371l-12.163,0l-1.667,3.667c-3.916,-3.229 -8.895,-5.092 -14.475,-5.092c-14.483,0 -24.837,10.438 -24.837,25.109c-0,14.72 10.354,25.291 24.837,25.291l0,-0.004Zm2.184,-14.446c-6.113,0 -10.605,-4.616 -10.605,-10.804c0,-6.146 4.455,-10.762 10.605,-10.762c6.108,-0 10.6,4.616 10.6,10.762c-0,6.188 -4.492,10.804 -10.6,10.804Zm54.679,14.446c12.583,0 20.937,-6.475 20.937,-16.375c0,-12.012 -9.945,-13.567 -17.429,-14.896c-4.5,-0.804 -8.125,-1.433 -8.125,-4.125c0,-2.196 1.759,-3.491 4.375,-3.491c2.959,-0 4.988,1.404 4.988,4.429l15.279,-0c-0.183,-9.596 -8,-16.013 -20.067,-16.013c-12.133,0 -20.225,6.125 -20.225,15.625c0,11.488 9.738,13.704 17.084,14.892c4.55,0.754 8.133,1.533 8.133,4.267c-0,2.445 -2.263,3.666 -4.65,3.666c-3.092,0 -5.5,-1.596 -5.5,-5.058l-15.708,-0c0.15,10.262 7.995,17.083 20.908,17.083l-0,-0.004Zm33.75,16.075c12.233,0 18.1,-5.237 24.487,-19.733l19.85,-45.263l-17.525,0l-9.371,26.096l-10.05,-26.096l-17.729,0l19.575,43.459c-2.208,5.891 -4.095,7.516 -10.333,7.516l-4.492,0l0,14.021l5.588,0Zm77.1,-16.075c14.583,0 24.887,-10.479 24.887,-25.2c0,-14.721 -10.3,-25.2 -24.887,-25.2c-4.152,-0.032 -8.23,1.099 -11.771,3.267l0,-18.892l-16.125,0l0,64.475l12.071,0l1.542,-3.517c3.845,3.213 8.758,5.067 14.283,5.067Zm-2.179,-14.446c-6.113,0 -10.604,-4.616 -10.604,-10.75c-0,-6.191 4.491,-10.808 10.604,-10.808c6.108,-0 10.6,4.617 10.6,10.804c-0,6.138 -4.53,10.75 -10.6,10.75l-0,0.004Zm56.658,14.446c5.5,0 10.417,-1.808 14.292,-4.95l1.4,3.35l12.612,0l0,-47.371l-12.158,0l-1.671,3.667c-3.912,-3.229 -8.896,-5.092 -14.475,-5.092c-14.483,0 -24.833,10.438 -24.833,25.109c-0,14.72 10.35,25.291 24.833,25.291l0,-0.004Zm2.183,-14.446c-6.112,0 -10.604,-4.616 -10.604,-10.804c0,-6.146 4.459,-10.762 10.604,-10.762c6.113,-0 10.605,4.616 10.605,10.762c-0,6.188 -4.492,10.804 -10.605,10.804Zm52.721,12.9l0,-25.3c0,-6.029 2.925,-9.583 8.013,-9.583c4.108,-0 6.179,2.737 6.179,8.25l-0,26.625l16.312,-0l0,-28.875c0,-12.071 -7.22,-19.888 -18.22,-19.888c-6.125,0 -11.388,2.355 -14.917,6.284l-2.238,-4.884l-11.445,0l-0,47.371l16.316,0Zm57.284,-0.004l-0,-20.033l11.866,20.033l19.234,0l-16.259,-24.792l14.763,-22.579l-18.321,0l-11.283,18.559l-0,-35.663l-16.317,0l-0,64.475l16.317,0Z" style="fill:#ffffff;fill-rule:nonzero;"/>
<g xmlns="http://www.w3.org/2000/svg"><path d="M45.008,0l-45.008,82.1l24.942,0l45.012,-82.1l-24.946,0Z" style="fill:url(#_Linear1);"/><path d="M75.713,0l-45.013,82.1l24.942,0l45.012,-82.1l-24.942,0Z" style="fill:url(#_Linear2);"/><path d="M106.413,0l-45.009,82.1l24.942,0l45.008,-82.1l-24.942,0Z" style="fill:url(#_Linear3);"/></g>
<defs xmlns="http://www.w3.org/2000/svg"><linearGradient id="_Linear1" x1="0" y1="0" x2="1" y2="0" gradientUnits="userSpaceOnUse" gradientTransform="matrix(-38.2593,82.1,-82.1,-38.2593,50.5034,0)"><stop offset="0" style="stop-color:#33d35e;stop-opacity:1"/><stop offset="1" style="stop-color:#2ab6d9;stop-opacity:1"/></linearGradient><linearGradient id="_Linear2" x1="0" y1="0" x2="1" y2="0" gradientUnits="userSpaceOnUse" gradientTransform="matrix(-38.2593,82.1,-82.1,-38.2593,81.2034,0)"><stop offset="0" style="stop-color:#33d35e;stop-opacity:0.5"/><stop offset="1" style="stop-color:#2ab6d9;stop-opacity:0.5"/></linearGradient><linearGradient id="_Linear3" x1="0" y1="0" x2="1" y2="0" gradientUnits="userSpaceOnUse" gradientTransform="matrix(-38.2571,82.1,-82.1,-38.2571,111.905,0)"><stop offset="0" style="stop-color:#33d35e;stop-opacity:0.15"/><stop offset="1" style="stop-color:#2ab6d9;stop-opacity:0.15"/></linearGradient></defs></svg>